<!-- Generated by IcoMoon.io -->
<svg version="1.1" xmlns="http://www.w3.org/2000/svg" width="32" height="32" viewBox="0 0 32 32">
<title>language</title>
<path d="M24.176 12.137l-1.305 0.221-2.489 7.539 1.356-0.265 0.589-1.925 2.353-0.444 0.587 1.68 1.4-0.276-2.491-6.529zM22.699 16.5l0.813-2.667 0.805 2.368-1.619 0.299zM10.493 15.167l0.136-0.657-1.115-0.487-0.111 0.544c-0.376-0.143-0.777-0.239-1.183-0.28 0.009-0.304 0.025-0.6 0.049-0.884l1.245 0.273-0.004-1.183-1.095-0.243 0.144-0.621-1.087-0.609c-0.080 0.283-0.145 0.56-0.212 0.975l-1.241-0.276v1.192l1.107 0.244c-0.029 0.379-0.047 0.773-0.052 1.175-2.667 0.532-1.989 3.975 0.129 4.197 1.423 0.149 2.372-0.856 2.925-2.215 0.576 0.493 0.817 1.168 0.603 1.697-0.2 0.491-0.789 0.876-1.92 0.616l0.001 1.276c1.255 0.279 2.488 0.001 2.968-1.18 0.469-1.152-0.073-2.636-1.289-3.555zM7.107 15.721c0.032 0.548 0.087 1.057 0.163 1.517-1.013-0.004-1.055-1.139-0.163-1.517zM8.323 16.793c-0.047-0.377-0.079-0.787-0.095-1.221 0.271 0.019 0.544 0.069 0.801 0.148-0.177 0.403-0.411 0.792-0.707 1.073zM16 6.276c-3.917-2.44-9.888-3.423-16-3.609v23.619c5.249 0.16 10.393 0.908 14.223 2.66 1.128 0.517 2.423 0.517 3.556 0 3.829-1.752 8.972-2.5 14.221-2.66v-23.619c-6.112 0.187-12.083 1.169-16 3.609zM2.667 23.748v-18.272c6.876 0.519 10.036 1.951 12 3.112v17.557c-2.033-0.728-6.288-2.007-12-2.397zM29.333 23.748c-5.711 0.391-9.967 1.669-12 2.399v-17.561c1.937-1.148 5.107-2.589 12-3.109v18.272z"></path>
</svg>
