<!-- Generated by IcoMoon.io -->
<svg version="1.1" xmlns="http://www.w3.org/2000/svg" width="32" height="32" viewBox="0 0 32 32">
<title>math</title>
<path d="M17.333 32h8c3.683 0 6.667-2.985 6.667-6.667v-8h-14.667v14.667zM21.333 22.667h6.667v1.333h-6.667v-1.333zM21.333 25.333h6.667v1.333h-6.667v-1.333zM0 25.333c0 3.681 2.985 6.667 6.667 6.667h8v-14.667h-14.667v8zM4 24h2.667v-2.667h1.333v2.667h2.667v1.333h-2.667v2.667h-1.333v-2.667h-2.667v-1.333zM25.333 0h-8v14.667h14.667v-8c0-3.681-2.984-6.667-6.667-6.667zM24.667 4c0.368 0 0.667 0.299 0.667 0.667s-0.299 0.667-0.667 0.667-0.667-0.299-0.667-0.667 0.299-0.667 0.667-0.667zM24.667 10.667c-0.368 0-0.667-0.299-0.667-0.667s0.299-0.667 0.667-0.667 0.667 0.299 0.667 0.667-0.299 0.667-0.667 0.667zM28 8h-6.667v-1.333h6.667v1.333zM0 6.667v8h14.667v-14.667h-8c-3.681 0-6.667 2.985-6.667 6.667zM9.219 4.504l0.944 0.944-1.887 1.885 1.885 1.885-0.943 0.943-1.885-1.885-1.885 1.885-0.944-0.943 1.885-1.885-1.885-1.885 0.943-0.943 1.887 1.885 1.885-1.887z"></path>
</svg>
