<!-- Generated by IcoMoon.io -->
<svg version="1.1" xmlns="http://www.w3.org/2000/svg" width="32" height="32" viewBox="0 0 32 32">
<title>medical2</title>
<path d="M29.101 12h-2.781c0.228-0.649 0.349-1.276 0.349-1.88 0-3.101-2.424-5.035-5.365-4.764-3.575 0.329-6.024 4.947-6.637 5.979-0.703-1.151-3.015-5.651-6.641-5.992-2.813-0.265-5.359 1.575-5.359 4.776 0 4.145 5.796 9.445 12.001 15.487 1.547-1.503 3.047-2.944 4.432-4.324l1.293 2.476c-1.757 1.736-3.692 3.581-5.725 5.575-8.219-8.049-14.668-13.603-14.668-19.204 0-4.392 3.283-7.368 7.565-7.461 2.884-0.012 5.5 1.276 7.103 3.936 1.569-2.608 4.195-3.923 7.004-3.923 4.085 0 7.661 2.82 7.661 7.46 0 0.619-0.080 1.237-0.232 1.86zM14.309 17.333c-0.461 0.797-1.323 1.333-2.309 1.333-1.472 0-2.667-1.195-2.667-2.667s1.195-2.667 2.667-2.667c0.987 0 1.848 0.536 2.309 1.333h1.629l2.507-3.613c0.187-0.269 0.501-0.42 0.829-0.399 0.327 0.021 0.619 0.215 0.768 0.507l3.027 5.916 1.084-1.933c0.165-0.295 0.476-0.477 0.815-0.477h7.032v2.667h-6.017l-2.345 3.877c-0.176 0.292-0.497 0.464-0.839 0.449-0.34-0.013-0.645-0.213-0.797-0.519l-3.008-6.079-1.319 1.875c-0.175 0.248-0.46 0.396-0.764 0.396h-2.601z"></path>
</svg>
