<!-- Generated by IcoMoon.io -->
<svg version="1.1" xmlns="http://www.w3.org/2000/svg" width="32" height="32" viewBox="0 0 32 32">
<title>paintbrush2</title>
<path d="M11.996 18.647c0.013 1.472-1.173 2.677-2.648 2.687-1.473 0.012-2.673-1.173-2.681-2.645-0.013-1.473 1.172-2.673 2.643-2.688 1.475-0.009 2.679 1.177 2.687 2.647zM10.692 13.332c-1.472 0.011-2.677-1.173-2.687-2.649-0.012-1.471 1.169-2.672 2.645-2.681 1.469-0.013 2.677 1.169 2.683 2.643 0.016 1.476-1.173 2.675-2.641 2.688zM21.333 7.98c0.005 1.469-1.175 2.677-2.647 2.687-1.475 0.013-2.677-1.172-2.687-2.644-0.015-1.475 1.171-2.675 2.647-2.687 1.468-0.008 2.673 1.175 2.687 2.644zM5.333 29.109c6.116 0.507 3.925-5.989 9.584-6.049l2.451 2.045c0.611 7.383-8.42 9.029-12.035 4.004zM24.087 19.623c1.903-2.985 7.795-12.997 7.795-12.997 0.471-0.831-0.572-1.697-1.3-1.084 0 0-8.763 7.619-11.348 10.033-2.043 1.909-2.052 2.781-2.713 5.929l2.24 1.867c2.969-1.22 3.824-1.387 5.327-3.748zM7.257 26.031c-2.779-2.427-4.56-5.972-4.591-9.929-0.059-7.347 5.875-13.373 13.227-13.433 5.117-0.028 8.639 2.54 8.661 4.596l2.217-1.941c-1.347-2.964-5.576-5.393-10.901-5.323-8.831 0.073-15.94 7.288-15.871 16.123 0.031 3.883 1.444 7.427 3.764 10.18 1.277 0.656 2.831 0.439 3.493-0.272zM24.32 23.489c1.412 2.627-1.801 4.493-4.727 5.323-0.405 1.216-1.071 2.295-1.832 3.081 7.007-0.788 12.081-5.739 8.355-10.519-0.612 0.913-1.196 1.596-1.796 2.115z"></path>
</svg>
