<!-- Generated by IcoMoon.io -->
<svg version="1.1" xmlns="http://www.w3.org/2000/svg" width="32" height="32" viewBox="0 0 32 32">
<title>paintbrush</title>
<path d="M5.333 29.109c6.116 0.507 3.925-5.991 9.584-6.051l2.451 2.045c0.611 7.384-8.42 9.031-12.035 4.005zM24.087 19.623c1.903-2.985 7.796-12.999 7.796-12.999 0.469-0.831-0.573-1.697-1.301-1.084 0 0-8.763 7.619-11.348 10.033-2.043 1.909-2.052 2.781-2.713 5.929l2.24 1.867c2.969-1.22 3.824-1.385 5.327-3.747zM8.088 24.791c0.888-1.512 2.331-3.969 5.929-4.349 0.579-2.783 0.809-4.4 3.396-6.816 1.831-1.709 6.584-5.879 9.361-8.305-1.333-2.944-5.521-5.364-10.904-5.32-8.832 0.073-15.941 7.287-15.871 16.123 0.031 3.881 1.441 7.428 3.76 10.18 2.157 0.572 3.168 0.464 4.328-1.512zM17.357 3.677c1.469-0.008 2.673 1.175 2.688 2.644 0.005 1.471-1.176 2.679-2.648 2.688-1.473 0.012-2.677-1.173-2.685-2.645-0.017-1.475 1.168-2.675 2.645-2.687zM9.361 6.345c1.469-0.013 2.677 1.169 2.683 2.644 0.016 1.475-1.173 2.673-2.64 2.688-1.475 0.009-2.679-1.175-2.688-2.651-0.012-1.471 1.169-2.672 2.645-2.681zM6.691 14.343c1.475-0.009 2.68 1.176 2.688 2.647 0.013 1.472-1.173 2.677-2.648 2.687-1.473 0.011-2.673-1.173-2.681-2.647-0.015-1.473 1.172-2.672 2.641-2.687zM20.065 25.719c0.028 2.985-1.176 4.957-2.243 6.116l-0.061 0.059c7.007-0.788 12.083-5.739 8.355-10.519-1.831 2.729-3.379 3.256-6.051 4.344z"></path>
</svg>
