<!-- Generated by IcoMoon.io -->
<svg version="1.1" xmlns="http://www.w3.org/2000/svg" width="32" height="32" viewBox="0 0 32 32">
<title>science</title>
<path d="M16 29.661c-0.571 0-1.465-0.945-2.251-3.035-0.772 0.393-1.443 0.703-2.095 0.984 1.023 2.656 2.477 4.389 4.345 4.389 1.92 0 3.403-1.828 4.429-4.603-0.647-0.268-1.329-0.573-2.108-0.959-0.799 2.223-1.731 3.223-2.321 3.223zM9.721 26.707c-4.132 1.519-8.387 1.557-8.387-2.192 0-1.252 0.58-3.009 2.395-5.443 0.775-1.039 1.672-2.060 2.583-2.997 2.041-2.073 4.341-4.067 7.34-6.132-1.444-0.795-3.019-1.556-4.555-2.12-1.573-0.58-2.959-0.901-4.020-0.901-0.677 0-1.181 0.143-1.345 0.384-0.177 0.256-0.184 1.045 0.593 2.457l0.28-0.017c1.396 0 2.531 1.155 2.531 2.577s-1.135 2.575-2.531 2.575c-1.397 0-2.529-1.152-2.529-2.575 0-0.461 0.119-0.893 0.327-1.268-0.787-1.387-1.069-2.48-1.069-3.337 0-2.020 1.539-3.139 3.744-3.139 3.352 0 7.867 2.216 10.776 3.928 2.952-1.817 7.623-4.212 11.072-4.212 2.524 0 3.743 1.405 3.743 3.193 0 1.252-0.581 3.008-2.395 5.44-4.112 5.516-12.288 11.475-18.552 13.779zM29.611 20.967c0.189-0.36 0.293-0.768 0.293-1.203 0-1.424-1.132-2.577-2.529-2.577s-2.529 1.153-2.529 2.577c0 1.421 1.132 2.573 2.529 2.573l0.344-0.023c0.736 1.365 0.725 2.129 0.553 2.383-0.165 0.241-0.668 0.383-1.347 0.383-2.136 0-5.111-1.259-7.027-2.209-0.64 0.456-1.433 0.997-2.209 1.492 2.567 1.381 6.343 3.060 9.236 3.060 2.187 0 3.744-1.107 3.744-3.139 0-0.851-0.281-1.94-1.059-3.317zM12.499 21.125h-0.001l-0.017-0.013c-1.525-1.080-3.029-2.267-4.423-3.508-3.756 3.836-4.815 6.617-4.317 7.365 0.168 0.252 0.656 0.399 1.337 0.399 3.133 0 8.107-2.691 11.049-4.62 3.612-2.367 7.733-5.771 10.315-9.235 2.008-2.691 2.069-4.108 1.821-4.481-0.168-0.253-0.655-0.397-1.337-0.397-2.603 0-6.565 1.945-8.848 3.263 1.684 1.115 3.257 2.292 4.693 3.488-0.544 0.553-1.112 1.092-1.693 1.615-1.595-1.309-3.365-2.595-5.201-3.747-2.108 1.381-4.231 3.005-6.137 4.736 1.433 1.268 3.141 2.599 4.961 3.831-0.696 0.441-1.399 0.863-2.201 1.305zM16 13.333c1.472 0 2.667 1.195 2.667 2.667s-1.195 2.667-2.667 2.667-2.667-1.195-2.667-2.667 1.195-2.667 2.667-2.667zM13.681 5.563c-0.773-0.38-1.46-0.691-2.108-0.957 1.027-2.776 2.509-4.605 4.427-4.605 1.871 0 3.327 1.736 4.348 4.389-0.653 0.283-1.328 0.596-2.096 0.985-0.783-2.089-1.677-3.033-2.252-3.033-0.588 0-1.519 1-2.319 3.221z"></path>
</svg>
